<?xml version="1.0" encoding="UTF-8" standalone="no"?>
<!DOCTYPE svg PUBLIC "-//W3C//DTD SVG 1.1//EN" "http://www.w3.org/Graphics/SVG/1.1/DTD/svg11.dtd">
<svg width="100%" height="100%" viewBox="0 0 546 887" version="1.1" xmlns="http://www.w3.org/2000/svg" xmlns:xlink="http://www.w3.org/1999/xlink" xml:space="preserve" xmlns:serif="http://www.serif.com/" style="fill-rule:evenodd;clip-rule:evenodd;stroke-linejoin:round;stroke-miterlimit:2;">
    <g transform="matrix(1,0,0,1,-908.6,-1632.2)">
        <g transform="matrix(1,0,0,1,46.9747,251.579)">
            <path d="M871,1753.94C871,1753.94 1128.79,1409.07 1201,1390C1201,1390 1310.42,1469.95 1399,1626C1399,1626 1166.66,1749.81 1132,1783L1240.16,1899L1116,1999L1199,2072L1106,2176L1162,2237L1140,2259L1035,2166L1093,2094L971,1987L1064,1892L871,1753.94Z" style="fill:rgb(254,210,39);"/>
        </g>
        <g transform="matrix(1,0,0,1,46.9747,251.579)">
            <path d="M1063,2063L1087,2068L1071,2040L1099,2050L1095,2017L1126,2034L1122,2005L1199,2071L1105,2177L1160,2236L1140,2259L1037,2167L1093,2094L1063,2063Z" style="fill:rgb(78,0,0);fill-opacity:0.75;"/>
        </g>
        <g transform="matrix(1,0,0,1,-3,205)">
            <path d="M1099.62,1939.84L1014.27,2027.02C1012.47,2028.86 1011.51,2031.36 1011.61,2033.93C1011.7,2036.51 1012.86,2038.93 1014.79,2040.63L1130.03,2141.7L1077.67,2206.7C1074.53,2210.6 1075.01,2216.28 1078.76,2219.6C1078.76,2219.6 1183.76,2312.6 1183.76,2312.6C1187.47,2315.88 1193.1,2315.71 1196.6,2312.21C1196.6,2312.21 1218.6,2290.21 1218.6,2290.21C1222.15,2286.66 1222.28,2280.94 1218.88,2277.24L1168.62,2222.5L1255.96,2124.83C1257.63,2122.97 1258.48,2120.51 1258.33,2118.02C1258.18,2115.52 1257.04,2113.19 1255.17,2111.54C1255.17,2111.54 1180.53,2045.89 1180.53,2045.89C1208.73,2023.18 1296.01,1952.88 1296.01,1952.88C1298.04,1951.25 1299.3,1948.84 1299.48,1946.25C1299.67,1943.65 1298.77,1941.09 1296.99,1939.19C1296.99,1939.19 1195.55,1830.39 1195.55,1830.39C1247.14,1790.57 1453.38,1680.85 1453.38,1680.85C1453.38,1680.85 1453.38,1680.85 1453.38,1680.85C1455.62,1679.66 1457.27,1677.62 1457.98,1675.19C1458.68,1672.76 1458.38,1670.15 1457.13,1667.95C1367.56,1510.17 1256.88,1429.28 1256.51,1429.01C1254.22,1427.34 1251.31,1426.79 1248.58,1427.51C1239.06,1430.03 1226.46,1437.46 1211.9,1449.02C1191.75,1465.01 1167.22,1489.05 1140.99,1517.21C1040.15,1625.44 913.466,1794.9 913.466,1794.9C913.466,1794.9 913.466,1794.9 913.466,1794.9C911.957,1796.92 911.324,1799.46 911.711,1801.95C912.097,1804.44 913.47,1806.67 915.52,1808.14L1099.62,1939.84ZM1276.4,1944.6L1160.09,2038.28C1157.94,2040.01 1156.66,2042.61 1156.6,2045.38C1156.54,2048.14 1157.71,2050.79 1159.78,2052.62L1235.68,2119.38L1148.99,2216.33C1145.77,2219.92 1145.81,2225.37 1149.07,2228.92L1198.99,2283.3L1189.59,2292.71L1097.89,2211.49L1150.28,2146.46C1153.43,2142.55 1152.93,2136.84 1149.16,2133.53L1034.6,2033.06L1120.67,1945.14C1122.59,1943.18 1123.55,1940.49 1123.31,1937.76C1123.08,1935.03 1121.65,1932.55 1119.43,1930.95C1119.43,1930.95 934.242,1798.48 934.242,1798.48L934.242,1798.48C960.001,1764.39 1067.14,1623.97 1154.71,1529.99C1180.19,1502.64 1203.98,1479.24 1223.56,1463.7C1233.47,1455.84 1242.11,1450.01 1249.25,1447.06C1268.9,1462.41 1359.33,1537.22 1436.03,1668.88C1393.62,1691.69 1206.44,1793.17 1175.49,1822.81C1171.79,1826.36 1171.62,1832.22 1175.12,1835.97L1276.4,1944.6Z"/>
        </g>
    </g>
</svg>
